<svg xmlns="http://www.w3.org/2000/svg" width="48" height="48" viewBox="0 0 48 48">
    <defs>
        <style>
            .prefix__cls-1{fill:#f0bc5e}
        </style>
    </defs>
    <g id="prefix__system" transform="translate(-1 -1)">
        <g id="prefix__Group_11909" data-name="Group 11909" transform="translate(14.935 11.065)">
            <g id="prefix__Group_11908" data-name="Group 11908">
                <path id="prefix__Path_8651" d="M23.645 17.871H19V14h4.645z" class="prefix__cls-1" data-name="Path 8651" transform="translate(-19 -14)"/>
            </g>
        </g>
        <g id="prefix__Group_11910" data-name="Group 11910" transform="translate(24.226 11.065)">
            <path id="prefix__Path_8652" d="M31 14h7.742v9.29H31z" class="prefix__cls-1" data-name="Path 8652" transform="translate(-31 -14)"/>
        </g>
        <g id="prefix__Group_11911" data-name="Group 11911" transform="translate(1 1)">
            <ellipse id="prefix__Ellipse_432" cx=".501" cy="1.001" data-name="Ellipse 432" rx=".501" ry="1.001" transform="translate(14.014 2.954)"/>
            <path id="prefix__Path_8653" d="M23 5h10.839v1.548H23z" data-name="Path 8653" transform="translate(-5.968 -1.903)"/>
            <path id="prefix__Path_8654" d="M31 13h7.742v1.548H31z" data-name="Path 8654" transform="translate(-7.774 -3.71)"/>
            <path id="prefix__Path_8655" d="M39 17h1.548v1.548H39z" data-name="Path 8655" transform="translate(-9.581 -4.613)"/>
            <path id="prefix__Path_8656" d="M31 17h4.645v1.548H31z" data-name="Path 8656" transform="translate(-7.774 -4.613)"/>
            <path id="prefix__Path_8657" d="M31 21h7.742v1.548H31z" data-name="Path 8657" transform="translate(-7.774 -5.516)"/>
            <path id="prefix__Path_8658" d="M31 25h7.742v1.548H31z" data-name="Path 8658" transform="translate(-7.774 -6.419)"/>
            <path id="prefix__Path_8659" d="M49 48.82V33.9l-3.233-2.425-1-2.489a6.923 6.923 0 0 0-1.543-2.339l-5.067-5.068V4.871A3.875 3.875 0 0 0 34.29 1H9.516a3.875 3.875 0 0 0-3.871 3.871V23l-2.137 2.138A8.508 8.508 0 0 0 1 31.194a8.675 8.675 0 0 0 .116 1.406l1.2 7.225a14.175 14.175 0 0 0 .821 2.935l.963 2.389V49h10.835v-3.722l.534-1.335c.149-.374.276-.754.393-1.137h23.117zm-1.548-2.736l-9.59-5.754 7.34-7.34 2.25 1.688zm-4.118-16.519l.887 2.217-7.881 7.881-3.3-.471a5.421 5.421 0 0 1-2.7-1.2l-1.572-1.31a6.982 6.982 0 0 0-2.992-1.452v-.164h-1.584a.739.739 0 0 1-.411-1.353l.289-.193a4.624 4.624 0 0 1 5.83.58l.742.741 1.095-1.095L31 33 20.609 22.611a.868.868 0 0 1 1.228-1.228l6.194 6.194 3.39 3.39 1.095-1.095-3.39-3.39A.868.868 0 0 1 29.739 25a.864.864 0 0 1 .614.254l3.39 3.39 1.095-1.095-3.39-3.39a.868.868 0 0 1 1.228-1.228l1.548 1.548 1.842 1.842 1.095-1.095-1.842-1.842a.868.868 0 0 1 1.228-1.228l5.588 5.588a5.382 5.382 0 0 1 1.2 1.819zM24.19 36.613h.036v1.548h-4.645v-1.548zm-8.3-6.194h3.69v-4.645h-4.645v2.182a2.574 2.574 0 0 0-4.191 1.327L10.29 31.1V8.742h23.226v12.886a2.4 2.4 0 0 0-3.862 1.833 2.414 2.414 0 0 0-2.121 1.43l-4.6-4.6a2.493 2.493 0 0 0-.254-.209V10.29h-10.84v10.839h7.136a2.265 2.265 0 0 0-.06 1.548h-7.076v1.548h8.2l1.548 1.548h-.454v4.645h4.645v-.454l1.246 1.246c-.129-.008-.256-.019-.386-.019a6.139 6.139 0 0 0-2.961.774h-7.668zm.593-1.548v-1.548h1.548v1.548zm-3.1-9.29v-7.742h7.742v7.742zm9.29 7.742h.454l1.095 1.095v.454h-1.545zM7.194 4.871a2.325 2.325 0 0 1 2.322-2.323H34.29a2.325 2.325 0 0 1 2.323 2.323v15.592a2.265 2.265 0 0 0-1.548.06V7.194H8.742v28.419c-.1.211-.191.426-.3.634a.661.661 0 0 1-1.253-.295zm6.194 42.581H5.645V45.9h7.742zm.645-4.083l-.395.986H5.447l-.867-2.169a12.675 12.675 0 0 1-.732-2.614l-1.2-7.225a7.121 7.121 0 0 1-.1-1.154 6.968 6.968 0 0 1 2.052-4.96l1.042-1.042v10.761a2.21 2.21 0 0 0 4.186.988 24.293 24.293 0 0 0 1.835-4.959l.581-2.321a1.04 1.04 0 0 1 2.046.173l.606 7.875q.036.483.036.969a12.591 12.591 0 0 1-.9 4.692zm2.211-2.11a14.152 14.152 0 0 0 .241-2.582q0-.545-.042-1.088l-.313-4.072h5.94a2.277 2.277 0 0 0-.166.81 2.249 2.249 0 0 0 .133.739h-4v4.644h7.742v-2.873a5.408 5.408 0 0 1 2 1.033l1.572 1.31a6.963 6.963 0 0 0 3.475 1.545l3.525.5.05.03z" data-name="Path 8659" transform="translate(-1 -1)"/>
        </g>
    </g>
</svg>
